<svg width="34" height="36" viewBox="0 0 34 36" fill="none" xmlns="http://www.w3.org/2000/svg">
<path d="M17 20.5713C20.3532 20.5713 23.0714 17.6931 23.0714 14.1427C23.0714 10.5923 20.3532 7.71411 17 7.71411C13.6469 7.71411 10.9286 10.5923 10.9286 14.1427C10.9286 17.6931 13.6469 20.5713 17 20.5713Z" stroke="currentColor" stroke-linecap="round" stroke-linejoin="round"/>
<path d="M25.0386 27.6428C22.8195 25.5675 19.9608 24.4221 17 24.4221C14.0393 24.4221 11.1805 25.5675 8.96144 27.6428M32.7857 26.9999V32.1428C32.7857 32.8248 32.5299 33.4788 32.0744 33.9611C31.619 34.4433 31.0012 34.7142 30.3572 34.7142H25.5M25.5 1.28564H30.3572C31.0012 1.28564 31.619 1.55656 32.0744 2.0388C32.5299 2.52103 32.7857 3.17509 32.7857 3.85707V8.99993M1.21429 8.99993V3.85707C1.21429 3.17509 1.47016 2.52103 1.92561 2.0388C2.38105 1.55656 2.99877 1.28564 3.64287 1.28564H8.50001M8.50001 34.7142H3.64287C2.99877 34.7142 2.38105 34.4433 1.92561 33.9611C1.47016 33.4788 1.21429 32.8248 1.21429 32.1428V26.9999" stroke="currentColor" stroke-width="1.3" stroke-linecap="round" stroke-linejoin="round"/>
</svg>
