<svg width="36" height="36" viewBox="0 0 37 36" fill="none" xmlns="http://www.w3.org/2000/svg">
<path d="M34.6563 0.75H2.34376C1.75946 0.75 1.19908 0.987053 0.785917 1.40901C0.372751 1.83097 0.140637 2.40326 0.140637 3V33C0.138027 33.429 0.25668 33.8497 0.482359 34.2115C0.708037 34.5734 1.03115 34.861 1.41294 35.04C1.70481 35.1776 2.02231 35.2492 2.34376 35.25C2.86107 35.2496 3.36142 35.0615 3.7556 34.7194L3.76661 34.7081L9.66732 29.4263C9.80134 29.311 9.9713 29.2485 10.1465 29.25H34.6563C35.2406 29.25 35.8009 29.0129 36.2141 28.591C36.6273 28.169 36.8594 27.5967 36.8594 27V3C36.8594 2.40326 36.6273 1.83097 36.2141 1.40901C35.8009 0.987053 35.2406 0.75 34.6563 0.75ZM35.3906 27C35.3906 27.1989 35.3133 27.3897 35.1755 27.5303C35.0378 27.671 34.851 27.75 34.6563 27.75H10.1465C9.62254 27.7515 9.11598 27.9421 8.7163 28.2881L2.81193 33.5756C2.7047 33.6662 2.57446 33.7239 2.43639 33.7418C2.29833 33.7597 2.15811 33.7372 2.03209 33.6769C1.90607 33.6166 1.79942 33.5209 1.72459 33.4011C1.64975 33.2812 1.6098 33.1421 1.60939 33V3C1.60939 2.80109 1.68676 2.61032 1.82448 2.46967C1.9622 2.32902 2.14899 2.25 2.34376 2.25H34.6563C34.851 2.25 35.0378 2.32902 35.1755 2.46967C35.3133 2.61032 35.3906 2.80109 35.3906 3V27Z" fill="currentColor"/>
</svg>
