<svg width="25" height="19" viewBox="0 0 25 19" fill="none" xmlns="http://www.w3.org/2000/svg">
<path d="M24.53 1.82781L8.53 18.3278C8.38937 18.4726 8.19875 18.554 8 18.554C7.80125 18.554 7.61062 18.4726 7.47 18.3278L0.469999 11.1091C0.337519 10.9624 0.265396 10.7685 0.268824 10.5681C0.272252 10.3678 0.350964 10.1766 0.488377 10.0349C0.62579 9.89318 0.811175 9.81201 1.00548 9.80847C1.19978 9.80494 1.38782 9.87931 1.53 10.0159L8 16.6868L23.47 0.734683C23.6122 0.598063 23.8002 0.523685 23.9945 0.52722C24.1888 0.530755 24.3742 0.611928 24.5116 0.753635C24.649 0.895342 24.7277 1.08652 24.7312 1.28689C24.7346 1.48727 24.6625 1.68119 24.53 1.82781Z" fill="currentColor"/>
</svg>
