<svg width="62" height="60" viewBox="0 0 62 60" fill="none" xmlns="http://www.w3.org/2000/svg">
<path d="M29.8571 38.5714L39.2857 30M39.2857 30L29.8571 21.4286M39.2857 30H11" stroke="currentColor" stroke-linecap="round" stroke-linejoin="round"/>
<path d="M14.2858 24.2857V15.6914C14.2858 14.1799 14.9445 12.7299 16.1179 11.6589C17.2913 10.5879 18.8836 9.9832 20.5463 9.97716L45.5383 9.88573C46.3641 9.88272 47.1823 10.0276 47.9464 10.3122C48.7105 10.5968 49.4054 11.0154 49.9915 11.5442C50.5776 12.073 51.0433 12.7016 51.362 13.3941C51.6808 14.0866 51.8463 14.8294 51.8492 15.58L51.9749 44.2343C51.9782 44.9847 51.8189 45.7284 51.5061 46.4228C51.1932 47.1172 50.733 47.7489 50.1517 48.2816C49.5703 48.8144 48.8792 49.2378 48.1179 49.5277C47.3565 49.8177 46.5398 49.9684 45.7143 49.9714H20.5715C18.9044 49.9714 17.3056 49.3694 16.1268 48.2978C14.948 47.2261 14.2858 45.7727 14.2858 44.2572V35.7143" stroke="currentColor" stroke-linecap="round" stroke-linejoin="round"/>
</svg>
