<?xml version="1.0" encoding="UTF-8"?>
<svg version="1.1" viewBox="0 0 800 800" xmlns="http://www.w3.org/2000/svg">
<svg width="800px" height="800px" fill="none" viewBox="0 0 24 24" xmlns="http://www.w3.org/2000/svg">
<path d="m8 9h8" stroke="#1C274C" stroke-linecap="round" stroke-width="1.5"/>
<path d="m8 12.5h5.5" stroke="#1C274C" stroke-linecap="round" stroke-width="1.5"/>
<path d="m13.087 21.388 0.6454 0.382-0.6454-0.382zm0.5421-0.9159-0.6455-0.382 0.6455 0.382zm-3.2576 0-0.64541 0.3821 0.64541-0.3821zm0.5421 0.9159 0.6454-0.382-0.6454 0.382zm-9.6633-10.888c0 0.4142 0.33579 0.75 0.75 0.75s0.75-0.3358 0.75-0.75h-1.5zm1.8235 5.1264c-0.15851-0.3827-0.59724-0.5644-0.97992-0.4059s-0.56441 0.5972-0.4059 0.9799l1.3858-0.574zm4.7161 3.3651-0.01292 0.7498 0.01292-0.7498zm-2.703-0.3721-0.28701 0.6929 0.28701-0.6929zm16.533-2.706 0.6929 0.287-0.6929-0.287zm-5.409 3.0781-0.0129-0.7499 0.0129 0.7499zm2.703-0.3721 0.287 0.6929-0.287-0.6929zm0.6991-15.883-0.3919 0.63948 0.3919-0.63948zm1.6507 1.6507 0.6395-0.39188-0.6395 0.39188zm-16.876-1.6507-0.39188-0.63948 0.39188 0.63948zm-1.6507 1.6507-0.63948-0.39188 0.63948 0.39188zm6.666 14.822 0.37707-0.6483-0.37707 0.6483zm4.3293 2.5599 0.5421-0.9158-1.2909-0.7641-0.5421 0.9159 1.2909 0.764zm-4.0063-0.9158 0.54211 0.9158 1.2908-0.764-0.5421-0.9159-1.2908 0.7641zm2.7154 0.1518c-0.1927 0.3256-0.6897 0.3256-0.8825 0l-1.2908 0.764c0.7736 1.307 2.6906 1.307 3.4642 0l-1.2909-0.764zm-1.9412-18.256h3v-1.5h-3v1.5zm10.75 7.75v1h1.5v-1h-1.5zm-13.448 7.7416c-1.2554-0.0217-1.9133-0.1015-2.4289-0.3151l-0.57402 1.3858c0.80497 0.3334 1.7218 0.4074 2.9771 0.429l0.02584-1.4997zm-6.1148-2.0412c0.58359 1.4089 1.703 2.5283 3.1119 3.1119l0.57403-1.3858c-1.0414-0.4314-1.8687-1.2587-2.3001-2.3001l-1.3858 0.574zm19.562-4.7004c0 1.1751-4e-4 2.0189-0.0458 2.6847-0.045 0.6591-0.1316 1.0889-0.2777 1.4417l1.3858 0.574c0.2345-0.566 0.3382-1.1781 0.3884-1.9136 0.0497-0.7287 0.0493-1.6322 0.0493-2.7868h-1.5zm-5.0267 8.2413c1.2553-0.0216 2.1722-0.0956 2.9771-0.429l-0.574-1.3858c-0.5156 0.2136-1.1735 0.2934-2.4289 0.3151l0.0258 1.4997zm4.7032-4.1149c-0.4314 1.0414-1.2587 1.8687-2.3001 2.3001l0.574 1.3858c1.4089-0.5836 2.5283-1.703 3.1119-3.1119l-1.3858-0.574zm-7.4265-12.876c1.6512 0 2.837 7.9e-4 3.7619 0.08873 0.9138 0.08688 1.4952 0.2535 1.9587 0.53755l0.7838-1.279c-0.7389-0.45275-1.577-0.65453-2.6005-0.75185-1.0124-0.09626-2.2817-0.09547-3.9039-0.09547v1.5zm9.25 7.75c0-1.6222 8e-4 -2.8915-0.0955-3.9039-0.0973-1.0236-0.2991-1.8617-0.7518-2.6005l-1.279 0.78375c0.2841 0.46353 0.4507 1.045 0.5376 1.9587 0.0879 0.92491 0.0887 2.1107 0.0887 3.7619h1.5zm-3.5294-7.1237c0.5719 0.35044 1.0527 0.83124 1.4031 1.4031l1.279-0.78375c-0.4741-0.77369-1.1246-1.4242-1.8983-1.8983l-0.7838 1.279zm-8.7206-2.1263c-1.6222 0-2.8915-7.9e-4 -3.9039 0.09547-1.0236 0.09732-1.8617 0.2991-2.6005 0.75185l0.78375 1.279c0.46353-0.28405 1.045-0.45067 1.9587-0.53755 0.92491-0.08794 2.1107-0.08873 3.7619-0.08873v-1.5zm-7.75 9.25c0-1.6512 7.9e-4 -2.837 0.08873-3.7619 0.08688-0.91375 0.2535-1.4952 0.53755-1.9587l-1.279-0.78375c-0.45275 0.73882-0.65453 1.5769-0.75185 2.6005-0.09626 1.0124-0.09547 2.2817-0.09547 3.9039h1.5zm1.2456-8.4027c-0.77369 0.47412-1.4242 1.1246-1.8983 1.8983l1.279 0.78375c0.35044-0.57186 0.83124-1.0527 1.4031-1.4031l-0.78375-1.279zm7.021 17.992c-0.203-0.343-0.3812-0.6457-0.5545-0.8835-0.1826-0.2504-0.3919-0.4759-0.68224-0.6448l-0.75414 1.2967c0.04741 0.0275 0.112 0.0778 0.22413 0.2316 0.12137 0.1666 0.2585 0.3967 0.47594 0.7641l1.2908-0.7641zm-3.2399-0.3485c0.43909 0.0076 0.71721 0.0132 0.92922 0.0366 0.19811 0.022 0.2749 0.0541 0.31984 0.0803l0.75414-1.2967c-0.29276-0.1703-0.5974-0.24-0.90889-0.2745-0.29758-0.0329-0.65722-0.0383-1.0685-0.0454l-0.02584 1.4997zm6.4975 1.1126c0.2174-0.3674 0.3545-0.5975 0.4759-0.7641 0.1121-0.1538 0.1767-0.2041 0.2241-0.2316l-0.7541-1.2967c-0.2903 0.1689-0.4997 0.3944-0.6822 0.6448-0.1733 0.2378-0.3515 0.5405-0.5546 0.8835l1.2909 0.7641zm1.9233-2.6123c-0.4113 0.0071-0.7709 0.0125-1.0685 0.0454-0.3115 0.0345-0.6161 0.1042-0.9089 0.2745l0.7541 1.2967c0.045-0.0262 0.1218-0.0583 0.3199-0.0803 0.212-0.0234 0.4901-0.029 0.9292-0.0366l-0.0258-1.4997z" fill="#1C274C"/>
</svg>
<style>@media (prefers-color-scheme: light) { :root { filter: none; } }</style>
</svg>
