<svg width="36" height="36" viewBox="0 0 23 24" fill="none" xmlns="http://www.w3.org/2000/svg">
<path d="M22.8828 12C22.8828 12.1865 22.8063 12.3653 22.67 12.4972C22.5338 12.629 22.3489 12.7031 22.1562 12.7031H12.2266V22.3125C12.2266 22.499 12.15 22.6778 12.0138 22.8097C11.8775 22.9415 11.6927 23.0156 11.5 23.0156C11.3073 23.0156 11.1225 22.9415 10.9862 22.8097C10.85 22.6778 10.7734 22.499 10.7734 22.3125V12.7031H0.84375C0.651054 12.7031 0.46625 12.629 0.329993 12.4972C0.193736 12.3653 0.117188 12.1865 0.117188 12C0.117188 11.8135 0.193736 11.6347 0.329993 11.5028C0.46625 11.371 0.651054 11.2969 0.84375 11.2969H10.7734V1.6875C10.7734 1.50102 10.85 1.32218 10.9862 1.19032C11.1225 1.05845 11.3073 0.984375 11.5 0.984375C11.6927 0.984375 11.8775 1.05845 12.0138 1.19032C12.15 1.32218 12.2266 1.50102 12.2266 1.6875V11.2969H22.1562C22.3489 11.2969 22.5338 11.371 22.67 11.5028C22.8063 11.6347 22.8828 11.8135 22.8828 12Z" fill="currentColor"/>
</svg>
